HIERARCHY
ROOT Hips
{
	OFFSET 0.000000 97.167313 0.000000
	CHANNELS 6 Xposition Yposition Zposition Xrotation Yrotation Zrotation
	JOINT Spine
	{
		OFFSET 0.000000 13.784798 0.064400
		CHANNELS 3 Xrotation Yrotation Zrotation
		JOINT Spine1
		{
			OFFSET 0.000000 12.037903 0.404700
			CHANNELS 3 Xrotation Yrotation Zrotation
			JOINT Spine2
			{
				OFFSET 0.000000 17.795601 0.420200
				CHANNELS 3 Xrotation Yrotation Zrotation
				JOINT Neck
				{
					OFFSET 0.000000 39.131302 11.954600
					CHANNELS 3 Xrotation Yrotation Zrotation
					JOINT Head
					{
						OFFSET 0.000000 14.456192 15.627699
						CHANNELS 3 Xrotation Yrotation Zrotation
						JOINT HeadTop_End
						{
							OFFSET 0.000000 15.703506 7.603401
							CHANNELS 3 Xrotation Yrotation Zrotation
							End Site
							{
								OFFSET 0.000000 17.447403 0.000000
							}
						}
					}
				}
				JOINT LeftShoulder
				{
					OFFSET 17.399500 24.608795 1.168800
					CHANNELS 3 Xrotation Yrotation Zrotation
					JOINT LeftArm
					{
						OFFSET 18.980635 5.765305 1.818600
						CHANNELS 3 Xrotation Yrotation Zrotation
						JOINT LeftForeArm
						{
							OFFSET 49.290169 0.000000 0.000000
							CHANNELS 3 Xrotation Yrotation Zrotation
							JOINT LeftHand
							{
								OFFSET 31.562012 0.000000 0.000000
								CHANNELS 3 Xrotation Yrotation Zrotation
								JOINT LeftHandThumb1
								{
									OFFSET 6.133995 -4.388519 7.076070
									CHANNELS 3 Xrotation Yrotation Zrotation
									JOINT LeftHandThumb2
									{
										OFFSET 6.037666 -3.485840 3.485847
										CHANNELS 3 Xrotation Yrotation Zrotation
										JOINT LeftHandThumb3
										{
											OFFSET 6.496506 -3.750763 3.750761
											CHANNELS 3 Xrotation Yrotation Zrotation
											JOINT LeftHandThumb4
											{
												OFFSET 5.616882 -3.242905 3.242910
												CHANNELS 3 Xrotation Yrotation Zrotation
												End Site
												{
													OFFSET -1.254608 7.132141 0.375429
												}
											}
										}
									}
								}
								JOINT LeftHandPinky1
								{
									OFFSET 18.920792 -0.453171 -11.426712
									CHANNELS 3 Xrotation Yrotation Zrotation
									JOINT LeftHandPinky2
									{
										OFFSET 4.919586 0.000000 0.000000
										CHANNELS 3 Xrotation Yrotation Zrotation
										JOINT LeftHandPinky3
										{
											OFFSET 5.233047 0.000000 0.000000
											CHANNELS 3 Xrotation Yrotation Zrotation
											JOINT LeftHandPinky4
											{
												OFFSET 5.571716 0.000000 0.000000
												CHANNELS 3 Xrotation Yrotation Zrotation
												End Site
												{
													OFFSET -3.459808 4.342407 -0.466164
												}
											}
										}
									}
								}
								JOINT LeftHandRing1
								{
									OFFSET 22.726120 -0.094986 -6.500475
									CHANNELS 3 Xrotation Yrotation Zrotation
									JOINT LeftHandRing2
									{
										OFFSET 6.408615 0.000000 0.000000
										CHANNELS 3 Xrotation Yrotation Zrotation
										JOINT LeftHandRing3
										{
											OFFSET 6.150223 0.000000 0.000000
											CHANNELS 3 Xrotation Yrotation Zrotation
											JOINT LeftHandRing4
											{
												OFFSET 6.145386 0.000000 0.000000
												CHANNELS 3 Xrotation Yrotation Zrotation
												End Site
												{
													OFFSET -3.671402 4.923981 -0.202372
												}
											}
										}
									}
								}
								JOINT LeftHandMiddle1
								{
									OFFSET 23.373947 0.000000 0.000001
									CHANNELS 3 Xrotation Yrotation Zrotation
									JOINT LeftHandMiddle2
									{
										OFFSET 6.996567 0.000000 0.000000
										CHANNELS 3 Xrotation Yrotation Zrotation
										JOINT LeftHandMiddle3
										{
											OFFSET 7.015945 0.000000 0.000000
											CHANNELS 3 Xrotation Yrotation Zrotation
											JOINT LeftHandMiddle4
											{
												OFFSET 7.721573 0.000000 0.000000
												CHANNELS 3 Xrotation Yrotation Zrotation
												End Site
												{
													OFFSET -4.651108 6.158463 0.251582
												}
											}
										}
									}
								}
								JOINT LeftHandIndex1
								{
									OFFSET 21.310577 -0.490082 6.209344
									CHANNELS 3 Xrotation Yrotation Zrotation
									JOINT LeftHandIndex2
									{
										OFFSET 7.536453 0.000000 0.000000
										CHANNELS 3 Xrotation Yrotation Zrotation
										JOINT LeftHandIndex3
										{
											OFFSET 7.512344 0.000000 0.000000
											CHANNELS 3 Xrotation Yrotation Zrotation
											JOINT LeftHandIndex4
											{
												OFFSET 10.212402 0.000000 0.000001
												CHANNELS 3 Xrotation Yrotation Zrotation
												End Site
												{
													OFFSET -5.180801 8.690506 1.388433
												}
											}
										}
									}
								}
							}
						}
					}
				}
				JOINT RightShoulder
				{
					OFFSET -17.399500 24.608795 1.168800
					CHANNELS 3 Xrotation Yrotation Zrotation
					JOINT RightArm
					{
						OFFSET -18.980635 5.765305 1.818600
						CHANNELS 3 Xrotation Yrotation Zrotation
						JOINT RightForeArm
						{
							OFFSET -49.290169 0.000000 0.000000
							CHANNELS 3 Xrotation Yrotation Zrotation
							JOINT RightHand
							{
								OFFSET -31.562012 0.000000 0.000000
								CHANNELS 3 Xrotation Yrotation Zrotation
								JOINT RightHandThumb1
								{
									OFFSET -6.133995 -4.388519 7.076070
									CHANNELS 3 Xrotation Yrotation Zrotation
									JOINT RightHandThumb2
									{
										OFFSET -6.037666 -3.485840 3.485847
										CHANNELS 3 Xrotation Yrotation Zrotation
										JOINT RightHandThumb3
										{
											OFFSET -6.496506 -3.750763 3.750761
											CHANNELS 3 Xrotation Yrotation Zrotation
											JOINT RightHandThumb4
											{
												OFFSET -5.616882 -3.242905 3.242910
												CHANNELS 3 Xrotation Yrotation Zrotation
												End Site
												{
													OFFSET 1.254608 7.132141 0.375429
												}
											}
										}
									}
								}
								JOINT RightHandIndex1
								{
									OFFSET -21.310577 -0.490082 6.209344
									CHANNELS 3 Xrotation Yrotation Zrotation
									JOINT RightHandIndex2
									{
										OFFSET -7.536453 0.000000 0.000000
										CHANNELS 3 Xrotation Yrotation Zrotation
										JOINT RightHandIndex3
										{
											OFFSET -7.512344 0.000000 0.000000
											CHANNELS 3 Xrotation Yrotation Zrotation
											JOINT RightHandIndex4
											{
												OFFSET -10.212402 0.000000 0.000001
												CHANNELS 3 Xrotation Yrotation Zrotation
												End Site
												{
													OFFSET 5.180801 8.690506 1.388433
												}
											}
										}
									}
								}
								JOINT RightHandMiddle1
								{
									OFFSET -23.373947 0.000000 0.000001
									CHANNELS 3 Xrotation Yrotation Zrotation
									JOINT RightHandMiddle2
									{
										OFFSET -6.996567 0.000000 0.000000
										CHANNELS 3 Xrotation Yrotation Zrotation
										JOINT RightHandMiddle3
										{
											OFFSET -7.015945 0.000000 0.000000
											CHANNELS 3 Xrotation Yrotation Zrotation
											JOINT RightHandMiddle4
											{
												OFFSET -7.721573 0.000000 0.000000
												CHANNELS 3 Xrotation Yrotation Zrotation
												End Site
												{
													OFFSET 4.651108 6.158463 0.251582
												}
											}
										}
									}
								}
								JOINT RightHandRing1
								{
									OFFSET -22.726120 -0.094986 -6.500475
									CHANNELS 3 Xrotation Yrotation Zrotation
									JOINT RightHandRing2
									{
										OFFSET -6.408615 0.000000 0.000000
										CHANNELS 3 Xrotation Yrotation Zrotation
										JOINT RightHandRing3
										{
											OFFSET -6.150223 0.000000 0.000000
											CHANNELS 3 Xrotation Yrotation Zrotation
											JOINT RightHandRing4
											{
												OFFSET -6.145386 0.000000 0.000000
												CHANNELS 3 Xrotation Yrotation Zrotation
												End Site
												{
													OFFSET 3.671402 4.923981 -0.202372
												}
											}
										}
									}
								}
								JOINT RightHandPinky1
								{
									OFFSET -18.920792 -0.453171 -11.426712
									CHANNELS 3 Xrotation Yrotation Zrotation
									JOINT RightHandPinky2
									{
										OFFSET -4.919586 0.000000 0.000000
										CHANNELS 3 Xrotation Yrotation Zrotation
										JOINT RightHandPinky3
										{
											OFFSET -5.233047 0.000000 0.000000
											CHANNELS 3 Xrotation Yrotation Zrotation
											JOINT RightHandPinky4
											{
												OFFSET -5.571716 0.000000 0.000000
												CHANNELS 3 Xrotation Yrotation Zrotation
												End Site
												{
													OFFSET 3.459808 4.342407 -0.466164
												}
											}
										}
									}
								}
							}
						}
					}
				}
			}
		}
	}
	JOINT LeftUpLeg
	{
		OFFSET 19.899099 -7.885101 -3.429500
		CHANNELS 3 Xrotation Yrotation Zrotation
		JOINT LeftLeg
		{
			OFFSET 1.745560 -36.997807 10.304700
			CHANNELS 3 Xrotation Yrotation Zrotation
			JOINT LeftFoot
			{
				OFFSET -1.745558 -29.803308 -13.615400
				CHANNELS 3 Xrotation Yrotation Zrotation
				JOINT LeftToeBase
				{
					OFFSET 1.181900 -18.539904 15.226099
					CHANNELS 3 Xrotation Yrotation Zrotation
					JOINT LeftToe_End
					{
						OFFSET -0.863701 1.402801 16.534700
						CHANNELS 3 Xrotation Yrotation Zrotation
						End Site
						{
							OFFSET 0.000000 16.616566 0.000000
						}
					}
				}
			}
		}
	}
	JOINT RightUpLeg
	{
		OFFSET -19.899099 -7.885101 -3.429500
		CHANNELS 3 Xrotation Yrotation Zrotation
		JOINT RightLeg
		{
			OFFSET -1.745560 -36.997807 10.304700
			CHANNELS 3 Xrotation Yrotation Zrotation
			JOINT RightFoot
			{
				OFFSET 1.745558 -29.803308 -13.615400
				CHANNELS 3 Xrotation Yrotation Zrotation
				JOINT RightToeBase
				{
					OFFSET -1.181900 -18.539904 15.226099
					CHANNELS 3 Xrotation Yrotation Zrotation
					JOINT RightToe_End
					{
						OFFSET 0.863701 1.402801 16.534700
						CHANNELS 3 Xrotation Yrotation Zrotation
						End Site
						{
							OFFSET 0.000000 16.616566 0.000000
						}
					}
				}
			}
		}
	}
}
MOTION
Frames: 4
Frame Time: 0.033333
-22.522812 65.750427 40.236931 20.978123 2.542011 -0.873574 5.432935 4.235268 2.139426 7.083432 -1.506439 2.319623 7.007221 -1.341150 2.253842 -2.028699 0.611219 -1.618139 -3.167361 0.708192 -0.209439 0.000002 -0.000000 -0.000001 1.561431 -8.759293 -18.213014 -40.548524 15.492829 -20.483841 -0.000004 -43.599256 -0.000023 25.570924 -22.511950 24.566222 3.499933 -15.469622 -15.497458 8.962111 35.534090 3.075930 -9.509181 -11.545559 9.962855 -0.000000 0.000001 0.000000 1.300982 6.329515 -40.855033 1.407577 3.810456 -40.536609 1.407045 3.809823 -40.528420 0.000001 0.000002 -0.000004 1.339477 6.004945 -38.707088 1.596038 4.019859 -43.295985 1.056981 3.358283 -34.933143 -0.000000 -0.000001 0.000005 -0.181939 3.201476 -25.937771 0.928006 3.165926 -32.666770 1.207094 3.563194 -37.419652 0.000003 0.000001 0.000007 -0.858255 -1.032696 -12.960572 0.190534 1.483391 -14.637379 0.231404 1.631841 -16.141011 -0.000002 0.000003 0.000000 1.177754 7.588181 13.793591 -17.801831 21.768030 12.684624 0.000035 81.034833 -0.000032 39.941307 11.082664 -24.255685 -14.983188 14.897875 -0.029467 10.113351 -46.731540 -4.000581 -4.807013 -11.045491 -15.910789 0.000001 0.000000 -0.000001 1.182992 -0.228820 25.310717 1.138666 -3.053058 40.899292 0.214082 -1.397155 17.421711 -0.000002 -0.000001 0.000003 -0.228065 -2.103187 17.320795 1.451317 -3.379885 46.467163 0.932919 -2.798266 36.870239 -0.000000 0.000002 -0.000001 0.350916 -3.956099 24.320495 2.065041 -3.870434 56.150418 0.354981 -1.785003 22.492286 -0.000000 0.000000 -0.000007 0.817317 -9.705339 11.364182 0.934967 -2.800962 36.911975 0.368035 -1.816264 22.908639 0.000002 0.000002 0.000001 -58.938959 -9.242778 41.609174 57.990847 -9.693416 -7.131332 -15.106814 17.812196 -20.387391 -1.909581 0.000000 0.000001 0.000000 0.000001 -0.000000 -65.563040 6.283901 -36.367083 58.813461 10.832278 4.691134 -9.731711 -6.288746 24.472701 -1.641944 0.000002 -0.000000 -0.000000 -0.000001 0.000000 
-22.213755 65.380913 40.245716 20.177050 0.603567 -0.468380 5.701845 4.427000 2.245075 7.089091 -1.332774 2.945931 7.055835 -1.155005 2.876438 -2.478914 1.063207 -1.855218 -3.283782 2.826979 -1.629010 -0.000000 0.000000 -0.000000 1.514653 -7.692856 -19.019512 -42.293030 13.789150 -22.294067 0.000022 -49.817668 0.000004 29.773430 -25.510400 20.728443 3.616464 -15.176417 -15.466113 8.934155 35.286239 3.015674 -9.524695 -11.622833 9.893738 -0.000000 -0.000003 -0.000001 1.247336 6.270830 -40.523342 1.385557 3.784609 -40.204105 1.385045 3.783990 -40.196135 -0.000002 0.000001 -0.000000 1.335100 5.999989 -39.074532 1.640092 4.066005 -43.920954 1.040465 3.334548 -34.650332 0.000000 0.000001 0.000002 -0.223685 3.130698 -26.131657 0.953180 3.204781 -33.119727 1.237299 3.602251 -37.903028 -0.000000 0.000001 0.000007 -0.916660 -1.226341 -13.135320 0.190194 1.482129 -14.624475 0.231982 1.633820 -16.161141 -0.000005 0.000002 -0.000003 1.115171 8.959695 15.558959 -16.861060 19.388346 11.586473 0.000022 71.801640 -0.000011 35.031972 11.838828 -22.394387 -15.228171 14.916353 -0.577234 10.121687 -46.911310 -4.058757 -4.832402 -10.999361 -15.945350 0.000001 0.000001 0.000002 1.100183 -0.233801 23.074177 0.995603 -2.879838 38.135572 0.161464 -1.216927 15.115451 0.000002 0.000001 -0.000003 -0.196696 -2.045055 15.646058 1.257249 -3.184574 43.078744 0.833009 -2.660003 34.771957 -0.000001 0.000000 -0.000001 0.332172 -3.899237 22.993617 1.799543 -3.678899 52.119111 0.273132 -1.572967 19.699893 -0.000001 0.000001 0.000002 0.799906 -9.639503 10.758243 0.814022 -2.632425 34.360540 0.259710 -1.535009 19.205257 -0.000000 -0.000000 0.000002 -53.607488 -9.790514 45.288392 51.825030 -14.356979 -7.587672 -17.327292 21.440630 -23.268049 1.381145 -0.000006 0.000005 0.000001 -0.000003 -0.000000 -66.706400 6.483382 -35.450984 58.522591 12.202808 4.496669 -8.443498 -5.973238 23.974845 -1.944091 -0.000007 0.000001 -0.000000 -0.000000 0.000000 
-21.711969 64.334595 40.447296 19.684200 -0.482461 -0.006713 5.890933 4.462285 2.225908 7.047733 -1.536210 3.351972 7.029337 -1.350298 3.279213 -2.654074 1.486910 -1.961465 -3.381547 4.890101 -2.369841 -0.000003 0.000000 -0.000000 1.404713 -7.047819 -19.558701 -41.575618 10.923816 -24.193293 0.000021 -55.973622 0.000020 34.820134 -27.779189 23.719970 3.732813 -14.883440 -15.435160 8.906208 35.038498 2.955345 -9.540226 -11.700146 9.824598 -0.000000 0.000001 0.000000 1.194307 6.211367 -40.189332 1.363585 3.758490 -39.870000 1.363031 3.757848 -39.861643 0.000000 -0.000000 -0.000001 1.322331 5.984988 -39.314948 1.671926 4.098716 -44.368123 1.023935 3.310541 -34.365042 -0.000001 0.000001 0.000003 -0.266926 3.051393 -26.243335 0.971351 3.232464 -33.443659 1.259323 3.630288 -38.251894 -0.000002 -0.000000 0.000004 -0.971146 -1.416006 -13.270635 0.190062 1.481654 -14.619477 0.232553 1.635789 -16.181201 -0.000002 0.000003 0.000001 1.032895 10.459105 16.699256 -18.351614 16.785309 12.144792 0.000042 60.979382 -0.000037 28.856678 11.816385 -20.188774 -15.466391 14.971653 -1.179071 10.126703 -47.062858 -4.116119 -4.863708 -10.900984 -15.969102 0.000001 0.000002 0.000001 1.011095 -0.203470 20.462243 0.838324 -2.667601 34.886055 0.109156 -1.003496 12.416708 -0.000000 -0.000000 -0.000006 -0.165281 -1.965108 13.718558 1.044616 -2.941102 39.100644 0.722341 -2.493258 32.311019 -0.000000 0.000000 -0.000004 0.309597 -3.830817 21.520780 1.506205 -3.431090 47.391172 0.191101 -1.321726 16.452987 0.000000 0.000001 -0.000003 0.789128 -9.559886 10.150867 0.683283 -2.430411 31.401248 0.160260 -1.212411 15.058142 -0.000001 -0.000001 0.000004 -49.954498 -10.823297 47.970235 46.238629 -17.523489 -8.045410 -14.311755 22.412689 -28.290292 4.345073 -0.000001 0.000001 0.000000 -0.000001 0.000000 -67.819428 7.490786 -35.780622 59.454283 13.780712 4.596154 -8.096868 -6.052572 23.991900 -1.978185 0.000002 -0.000003 -0.000000 0.000002 0.000000 
-20.787973 62.995613 40.638096 18.885075 -0.551807 0.138453 6.049292 4.471987 2.272769 7.043043 -2.058778 3.717218 7.029150 -1.863069 3.641148 -2.793410 1.829876 -2.124274 -3.692389 6.359485 -2.412965 -0.000001 0.000000 -0.000000 1.194526 -7.049722 -19.816961 -39.599483 6.065158 -25.490454 0.000054 -61.602986 0.000038 39.541232 -27.031905 27.323479 3.848757 -14.590264 -15.405422 8.878277 34.790767 2.894917 -9.555803 -11.777419 9.755433 -0.000000 -0.000001 -0.000003 1.141884 6.151499 -39.857224 1.341850 3.732394 -39.537240 1.341299 3.731724 -39.528979 -0.000002 0.000003 -0.000004 1.301999 5.960783 -39.436966 1.692139 4.119228 -44.650224 1.007644 3.286615 -34.081657 0.000000 0.000000 0.000003 -0.311274 2.963945 -26.278412 0.982915 3.249820 -33.647926 1.273500 3.648188 -38.475490 0.000001 0.000000 0.000009 -1.021662 -1.602110 -13.368975 0.190040 1.481470 -14.618171 0.233134 1.637785 -16.201429 -0.000000 0.000002 0.000006 0.992928 11.439617 17.314057 -21.481090 14.063856 13.788975 0.000014 49.104450 0.000007 27.321493 13.529147 -21.477614 -15.693092 15.062191 -1.805904 10.128790 -47.187605 -4.172590 -4.900539 -10.753056 -15.982578 0.000000 0.000002 0.000002 0.925424 -0.146932 17.617705 0.680073 -2.425164 31.325317 0.063761 -0.768807 9.481523 -0.000001 -0.000003 -0.000002 -0.133401 -1.874030 11.655545 0.832444 -2.659137 34.759598 0.610096 -2.306374 29.630600 -0.000001 0.000000 -0.000001 0.285807 -3.756821 19.984913 1.210776 -3.134208 42.235410 0.118753 -1.046098 12.952886 0.000004 -0.000000 -0.000003 0.788641 -9.469724 9.588228 0.554257 -2.205352 28.211767 0.081021 -0.865888 10.691899 -0.000000 -0.000001 -0.000001 -48.122067 -11.848181 49.961724 41.436367 -18.920485 -8.473161 -10.579598 20.650174 -35.496910 6.532409 0.000006 -0.000000 -0.000000 -0.000001 -0.000000 -67.721578 8.763618 -37.429290 60.568984 15.284517 5.013752 -8.250150 -6.373274 24.806462 -1.903000 -0.000004 -0.000001 -0.000000 -0.000000 0.000000 
